<svg width="70" height="70" viewBox="0 0 70 70" fill="none" xmlns="http://www.w3.org/2000/svg">
<g filter="url(#filter0_i_41_65)">
<path d="M23.8102 8.55666C16.2511 11.7801 10.4512 18.1124 7.72662 26.1039C6.77622 28.9107 6.20939 32.991 6.33321 36.1666C6.40703 38.2331 6.94107 41.8174 7.16408 41.7596C7.21364 41.7468 7.70098 41.3831 8.2342 40.9415C12.6143 37.3395 19.1208 33.3721 24.3011 31.1206C25.1578 30.7537 25.9526 30.4028 26.0793 30.3304C26.2307 30.2516 26.334 29.9873 26.3707 29.5686C26.5942 27.0687 28.3789 24.1649 30.6012 22.6921C34.7032 19.9541 40.2019 20.7619 43.3795 24.5464C44.2078 25.5465 44.2202 25.5433 44.763 25.4952C50.8422 24.8723 56.6264 24.9462 62.3421 25.7242C62.5628 25.7595 62.46 25.3637 61.7915 23.8075C59.8708 19.2621 56.5587 15.0108 52.7873 12.1984C46.6036 7.5815 39.5053 5.60368 32.0586 6.40883C29.7665 6.64561 25.9165 7.65517 23.8102 8.55666Z" fill="#EEF4FF"/>
<path d="M32.9125 26.0936C31.3386 27.161 30.4254 28.8889 30.417 30.7919C30.3867 33.3737 32.3561 35.6625 35.0272 36.1724C35.9165 36.3383 36.0592 36.3278 37.3478 35.9943C38.6735 35.6512 38.7322 35.6228 39.5302 34.9279C40.9262 33.735 41.6407 32.0057 41.4852 30.1847C41.2911 27.8589 39.4607 25.851 37.0594 25.3108C36.1637 25.1202 36.0054 25.1216 34.7816 25.3987C33.7592 25.6369 33.3508 25.7954 32.9125 26.0936Z" fill="#EEF4FF"/>
<path d="M26.0282 36.9569C20.478 39.5152 15.1063 42.9646 10.6602 46.8213C9.94843 47.4411 9.36013 47.9761 9.33856 47.9949C9.32021 48.0261 9.58864 48.5506 9.94792 49.1704C13.9794 56.1923 20.6289 61.1772 28.5743 63.1074C31.567 63.8377 35.1949 64.0604 38.4483 63.7068C40.5573 63.4778 44.4353 62.4742 46.3158 61.6708C51.2057 59.5737 55.3283 56.3552 58.4061 52.219C61.6096 47.9051 63.6779 42.2746 64.0163 36.907C64.1246 35.0838 64.0559 32.5275 63.8893 32.2934C63.7856 32.1487 61.1838 31.7528 58.6641 31.5205C55.2308 31.1814 51.4152 31.1524 47.7387 31.4043C46.569 31.4826 45.5948 31.5499 45.57 31.5563C45.5577 31.5595 45.4438 32.0378 45.3309 32.6214C44.8348 35.1918 43.1943 37.5304 40.8847 38.9729C39.6682 39.7365 37.5904 40.3403 36.15 40.3434C33.2476 40.3686 30.5614 39.1893 28.6397 37.0334C28.2069 36.5382 27.8031 36.1543 27.732 36.1859C27.6701 36.2019 26.9033 36.5588 26.0282 36.9569Z" fill="#EEF4FF"/>
</g>
<defs>
<filter id="filter0_i_41_65" x="6.31633" y="6.2337" width="57.7522" height="67.6379" filterUnits="userSpaceOnUse" color-interpolation-filters="sRGB">
<feFlood flood-opacity="0" result="BackgroundImageFix"/>
<feBlend mode="normal" in="SourceGraphic" in2="BackgroundImageFix" result="shape"/>
<feColorMatrix in="SourceAlpha" type="matrix" values="0 0 0 0 0 0 0 0 0 0 0 0 0 0 0 0 0 0 127 0" result="hardAlpha"/>
<feOffset dy="10"/>
<feGaussianBlur stdDeviation="10"/>
<feComposite in2="hardAlpha" operator="arithmetic" k2="-1" k3="1"/>
<feColorMatrix type="matrix" values="0 0 0 0 0 0 0 0 0 0 0 0 0 0 0 0 0 0 0.08 0"/>
<feBlend mode="normal" in2="shape" result="effect1_innerShadow_41_65"/>
</filter>
</defs>
</svg>
